<svg width="40" height="40" viewBox="0 0 40 40" fill="none" xmlns="http://www.w3.org/2000/svg">
<g id="free_icon_1 (1) 1">
<g id="Group">
<path id="id_111" d="M18.5548 28.9892C16.9449 28.9892 15.6464 30.286 15.6464 31.8976C15.6464 33.4992 16.9449 34.8 18.5548 34.8C20.158 34.8 21.464 33.4992 21.464 31.8976C21.464 30.286 20.158 28.9892 18.5548 28.9892Z" fill="#346EB0"/>
<path id="id_112" d="M30.4084 28.9892C28.8012 28.9892 27.5004 30.286 27.5004 31.8976C27.5004 33.4992 28.8011 34.8 30.4084 34.8C32.0116 34.8 33.3156 33.4992 33.3156 31.8976C33.3156 30.286 32.0116 28.9892 30.4084 28.9892Z" fill="#1976D2"/>
<path id="id_113" d="M32.782 16.0512H16.1764L16.8392 18.2331H32.1244L32.782 16.0512Z" fill="#1C6AC4"/>
<path id="id_114" d="M30.8048 22.59L31.464 20.412H17.5016L18.1632 22.59H30.8048Z" fill="#1A71D4"/>
<path id="id_115" d="M14.55 10.66L15.5116 13.8752H35.6664L32.3804 24.7576H16.5916L10.6671 5.20003H0V8.39081H8.27521L14.2131 27.9708H34.7484L40 10.66H14.55Z" fill="#176DCF"/>
</g>
</g>
</svg>
